<?xml version="1.0" encoding="iso-8859-1"?>
<!-- Uploaded to: SVG Repo, www.svgrepo.com, Generator: SVG Repo Mixer Tools -->
<svg fill="#000000" height="800px" width="800px" version="1.1" id="Layer_1" xmlns="http://www.w3.org/2000/svg" xmlns:xlink="http://www.w3.org/1999/xlink" 
	 viewBox="0 0 512 512" xml:space="preserve">
<g>
	<g>
		<circle cx="157.595" cy="390.644" r="22.197"/>
	</g>
</g>
<g>
	<g>
		<path d="M157.595,103.584c-12.258,0-22.197,9.938-22.197,22.197v177.572c0,12.258,9.938,22.197,22.197,22.197
			c12.258,0,22.197-9.938,22.197-22.197V125.78C179.792,113.522,169.854,103.584,157.595,103.584z"/>
	</g>
</g>
<g>
	<g>
		<path d="M455.029,0H56.971C44.713,0,34.775,9.938,34.775,22.197v467.607c0,12.258,9.938,22.197,22.197,22.197h398.058
			c12.258,0,22.197-9.938,22.197-22.197V22.197C477.225,9.938,467.287,0,455.029,0z M234.543,467.607H79.168V44.393h155.376V467.607
			z M434.312,467.607H278.936V44.393h155.376V467.607z"/>
	</g>
</g>
<g>
	<g>
		<circle cx="357.364" cy="390.644" r="22.197"/>
	</g>
</g>
<g>
	<g>
		<path d="M357.364,103.584c-12.258,0-22.197,9.938-22.197,22.197v177.572c0,12.258,9.938,22.197,22.197,22.197
			c12.258,0,22.197-9.938,22.197-22.197V125.78C379.561,113.522,369.623,103.584,357.364,103.584z"/>
	</g>
</g>
</svg>